ffmpeg version N-102852-g758e2da289 Copyright (c) 2000-2021 the FFmpeg developers
  built with gcc 7 (Ubuntu 7.5.0-3ubuntu1~18.04)
  configuration: --prefix=/home/aleksandr/ffmpeg_debug_build --pkg-config-flags=--static --extra-cflags=-I/home/aleksandr/ffmpeg_debug_build/include --extra-ldflags=-L/home/aleksandr/ffmpeg_debug_build/lib --extra-libs='-lpthread -lm' --bindir=/home/aleksandr/bin_debug --enable-gpl --enable-libass --enable-libfdk-aac --enable-libfreetype --enable-libmp3lame --enable-libopus --enable-libtheora --enable-libvorbis --enable-libvpx --enable-libx264 --enable-libx265 --enable-nonfree
  libavutil      57.  0.100 / 57.  0.100
  libavcodec     59.  3.101 / 59.  3.101
  libavformat    59.  4.100 / 59.  4.100
  libavdevice    59.  0.100 / 59.  0.100
  libavfilter     8.  0.103 /  8.  0.103
  libswscale      6.  0.100 /  6.  0.100
  libswresample   4.  0.100 /  4.  0.100
  libpostproc    56.  0.100 / 56.  0.100
Input #0, matroska,webm, from '../.././Samples/29_VP8_1280x720_30_068fps.webm':
  Metadata:
    encoder         : libwebm-0.2.1.0
  Duration: 00:00:16.67, start: 0.000000, bitrate: 873 kb/s
  Stream #0:0(eng): Video: vp8, yuv420p(progressive), 1280x720, SAR 1:1 DAR 16:9, 30 fps, 30 tbr, 1k tbn (default)
Stream mapping:
  Stream #0:0 -> #0:0 (vp8 (native) -> h264 (libx264))
Press [q] to stop, [?] for help
[libx264 @ 0x5582f7013380] using SAR=1/1
[libx264 @ 0x5582f7013380] using cpu capabilities: MMX2 SSE2Fast SSSE3 SSE4.2 AVX FMA3 BMI2 AVX2
[libx264 @ 0x5582f7013380] profile High, level 3.1
[libx264 @ 0x5582f7013380] 264 - core 152 r2854 e9a5903 - H.264/MPEG-4 AVC codec - Copyleft 2003-2017 - http://www.videolan.org/x264.html - options: cabac=1 ref=3 deblock=1:0:0 analyse=0x3:0x113 me=hex subme=7 psy=1 psy_rd=1.00:0.00 mixed_ref=1 me_range=16 chroma_me=1 trellis=1 8x8dct=1 cqm=0 deadzone=21,11 fast_pskip=1 chroma_qp_offset=-2 threads=6 lookahead_threads=1 sliced_threads=0 nr=0 decimate=1 interlaced=0 bluray_compat=0 constrained_intra=0 bframes=3 b_pyramid=2 b_adapt=1 b_bias=0 direct=1 weightb=1 open_gop=0 weightp=2 keyint=250 keyint_min=25 scenecut=40 intra_refresh=0 rc_lookahead=40 rc=crf mbtree=1 crf=23.0 qcomp=0.60 qpmin=0 qpmax=69 qpstep=4 ip_ratio=1.40 aq=1:1.00
Output #0, mov, to '/home/aleksandr/Debug-release_tests/Debug/Samples/29_VP8_1280x720_30_068fps.webm_tc/output_std2.mov':
  Metadata:
    encoder         : Lavf59.4.100
  Stream #0:0(eng): Video: h264 (avc1 / 0x31637661), yuv420p(tv, bt470bg/unknown/unknown, progressive), 1280x720 [SAR 1:1 DAR 16:9], q=2-31, 30 fps, 15360 tbn (default)
    Metadata:
      encoder         : Lavc59.3.101 libx264
    Side data:
      cpb: bitrate max/min/avg: 0/0/0 buffer size: 0 vbv_delay: N/A
frame=    1 fps=0.0 q=0.0 size=       0kB time=00:00:00.00 bitrate=N/A speed=   0x    frame=   58 fps=0.0 q=29.0 size=       0kB time=00:00:00.16 bitrate=   1.7kbits/s speed=0.325x    frame=   79 fps= 77 q=29.0 size=     512kB time=00:00:00.86 bitrate=4839.5kbits/s speed=0.845x    frame=  101 fps= 64 q=29.0 size=     768kB time=00:00:01.60 bitrate=3932.2kbits/s speed=1.01x    frame=  124 fps= 58 q=29.0 size=    1024kB time=00:00:02.36 bitrate=3544.5kbits/s speed=1.11x    frame=  144 fps= 54 q=29.0 size=    1536kB time=00:00:03.03 bitrate=4148.2kbits/s speed=1.14x    frame=  164 fps= 51 q=29.0 size=    1792kB time=00:00:03.70 bitrate=3967.6kbits/s speed=1.15x    frame=  186 fps= 50 q=29.0 size=    2304kB time=00:00:04.43 bitrate=4257.4kbits/s speed=1.18x    frame=  208 fps= 48 q=29.0 size=    2560kB time=00:00:05.16 bitrate=4059.0kbits/s speed= 1.2x    frame=  229 fps= 47 q=29.0 size=    2816kB time=00:00:05.86 bitrate=3932.2kbits/s speed=1.22x    frame=  250 fps= 47 q=29.0 size=    3072kB time=00:00:06.56 bitrate=3832.4kbits/s speed=1.23x    frame=  273 fps= 47 q=29.0 size=    3584kB time=00:00:07.33 bitrate=4003.7kbits/s speed=1.26x    frame=  296 fps= 47 q=29.0 size=    3840kB time=00:00:08.10 bitrate=3883.6kbits/s speed=1.27x    frame=  320 fps= 47 q=29.0 size=    4352kB time=00:00:08.90 bitrate=4005.8kbits/s speed= 1.3x    frame=  341 fps= 46 q=29.0 size=    4608kB time=00:00:09.60 bitrate=3932.2kbits/s speed= 1.3x    frame=  363 fps= 46 q=29.0 size=    4864kB time=00:00:10.33 bitrate=3856.1kbits/s speed=1.31x    frame=  384 fps= 46 q=29.0 size=    5376kB time=00:00:11.03 bitrate=3991.6kbits/s speed=1.32x    frame=  406 fps= 45 q=29.0 size=    5632kB time=00:00:11.76 bitrate=3921.0kbits/s speed=1.32x    frame=  427 fps= 45 q=29.0 size=    6144kB time=00:00:12.46 bitrate=4037.3kbits/s speed=1.32x    frame=  450 fps= 45 q=29.0 size=    6656kB time=00:00:13.23 bitrate=4120.4kbits/s speed=1.33x    frame=  471 fps= 45 q=29.0 size=    6912kB time=00:00:13.93 bitrate=4063.9kbits/s speed=1.33x    frame=  492 fps= 45 q=29.0 size=    7168kB time=00:00:14.63 bitrate=4012.8kbits/s speed=1.33x    frame=  500 fps= 39 q=-1.0 Lsize=    8417kB time=00:00:16.56 bitrate=4162.3kbits/s speed=1.31x    
video:8413kB audio:0kB subtitle:0kB other streams:0kB global headers:0kB muxing overhead: 0.054534%
[libx264 @ 0x5582f7013380] frame I:4     Avg QP:23.74  size: 74342
[libx264 @ 0x5582f7013380] frame P:401   Avg QP:27.00  size: 19490
[libx264 @ 0x5582f7013380] frame B:95    Avg QP:30.18  size:  5275
[libx264 @ 0x5582f7013380] consecutive B-frames: 68.0% 18.4%  4.8%  8.8%
[libx264 @ 0x5582f7013380] mb I  I16..4:  1.2% 54.7% 44.1%
[libx264 @ 0x5582f7013380] mb P  I16..4:  0.5%  3.5%  1.1%  P16..4: 48.2% 15.5%  6.6%  0.0%  0.0%    skip:24.7%
[libx264 @ 0x5582f7013380] mb B  I16..4:  0.1%  0.5%  0.2%  B16..8: 61.2%  5.1%  1.1%  direct: 0.7%  skip:31.0%  L0:58.9% L1:37.2% BI: 4.0%
[libx264 @ 0x5582f7013380] 8x8 transform intra:66.4% inter:76.7%
[libx264 @ 0x5582f7013380] coded y,uvDC,uvAC intra: 89.2% 42.5% 16.3% inter: 26.4% 4.3% 0.2%
[libx264 @ 0x5582f7013380] i16 v,h,dc,p:  2% 89%  4%  5%
[libx264 @ 0x5582f7013380] i8 v,h,dc,ddl,ddr,vr,hd,vl,hu:  5% 51% 10%  3%  4%  2% 11%  3% 11%
[libx264 @ 0x5582f7013380] i4 v,h,dc,ddl,ddr,vr,hd,vl,hu:  7% 55%  9%  3%  4%  2% 10%  2%  8%
[libx264 @ 0x5582f7013380] i8c dc,h,v,p: 68% 18% 10%  4%
[libx264 @ 0x5582f7013380] Weighted P-Frames: Y:0.0% UV:0.0%
[libx264 @ 0x5582f7013380] ref P L0: 68.2% 25.3%  4.9%  1.6%
[libx264 @ 0x5582f7013380] ref B L0: 97.4%  2.4%  0.2%
[libx264 @ 0x5582f7013380] ref B L1: 99.5%  0.5%
[libx264 @ 0x5582f7013380] kb/s:4134.75
	Command being timed: "/home/aleksandr/bin_debug/ffmpeg -i ../.././Samples/29_VP8_1280x720_30_068fps.webm -c:v libx264 -f mov /home/aleksandr/Debug-release_tests/Debug/Samples/29_VP8_1280x720_30_068fps.webm_tc/output_std2.mov"
	User time (seconds): 48.48
	System time (seconds): 0.21
	Percent of CPU this job got: 383%
	Elapsed (wall clock) time (h:mm:ss or m:ss): 0:12.70
	Average shared text size (kbytes): 0
	Average unshared data size (kbytes): 0
	Average stack size (kbytes): 0
	Average total size (kbytes): 0
	Maximum resident set size (kbytes): 257356
	Average resident set size (kbytes): 0
	Major (requiring I/O) page faults: 0
	Minor (reclaiming a frame) page faults: 25406
	Voluntary context switches: 7378
	Involuntary context switches: 4576
	Swaps: 0
	File system inputs: 0
	File system outputs: 16856
	Socket messages sent: 0
	Socket messages received: 0
	Signals delivered: 0
	Page size (bytes): 4096
	Exit status: 0
